<?xml version="1.0"?>
<svg xmlns="http://www.w3.org/2000/svg" viewBox="0 0 64 64" width="512" height="512"><path d="m3 41h30v20h-30z" fill="#cfcfcf"/><path d="m19 3h8v25h-8z" fill="#cfcfcf"/><path d="m27 28v-12l-8 11v1h-3a12.964 12.964 0 0 0 -4 .634v-3.634h-6v7.713a12.926 12.926 0 0 0 -3 8.287h30v-13z" fill="#ccc"/><path d="m37 61h4v-9.857l-4-2.572z" fill="#ccc"/><path d="m53.946 10.969a13.986 13.986 0 0 0 -4.946-1.696v-2.273a4 4 0 0 0 -4-4h-11a4 4 0 0 0 -4 4v21h3v33h4v-12.429l7.837 5.038a4 4 0 0 0 4.326 0l7.837-5.038v12.429h4v-37.875a14 14 0 0 0 -7.054-12.156zm-8.946-1.696a13.959 13.959 0 0 0 -11 8.67v-10.943h11z" fill="#f4c734"/><path d="m58 26a1 1 0 0 1 -1-1v-1a10.011 10.011 0 0 0 -10-10 1 1 0 0 1 0-2 12.013 12.013 0 0 1 12 12v1a1 1 0 0 1 -1 1z" fill="#e0b730"/><path d="m33 21v40h-8a22.318 22.318 0 0 0 6.5-14.471z" fill="#919191" opacity=".33"/><path d="m54.442 10.1a14.927 14.927 0 0 0 -4.442-1.663v-1.437a5.006 5.006 0 0 0 -5-5h-11a5.006 5.006 0 0 0 -5 5v20h-1v-24a1 1 0 0 0 -1-1h-8a1 1 0 0 0 -1 1v24h-2a14 14 0 0 0 -3 .332v-2.332a1 1 0 0 0 -1-1h-6a1 1 0 0 0 -1 1v7.368a13.922 13.922 0 0 0 -3 8.632v20a1 1 0 0 0 1 1h38a1 1 0 0 0 1-1v-8.026l2.3 1.477a5.012 5.012 0 0 0 5.408 0l6.292-4.051v10.6a1 1 0 0 0 1 1h4a1 1 0 0 0 1-1v-37.875a15.032 15.032 0 0 0 -7.558-13.025zm-20.442-6.1h11a3 3 0 0 1 3 3v1.168a14.832 14.832 0 0 0 -2 0v-1.168a1 1 0 0 0 -1-1h-11a1 1 0 0 0 -1 1v10.773a14.948 14.948 0 0 0 -1 5.352v4.044c-.336-.05-.668-.083-1-.108v-20.061a3 3 0 0 1 3-3zm-30 38h28v2h-28zm40-33.563a14.856 14.856 0 0 0 -9 5.7v-6.137h9zm-24-4.437h6v23h-6zm-9 22v1.939a13.986 13.986 0 0 0 -4 2.353v-4.292zm5 3h14a11.84 11.84 0 0 1 2 .2v10.8h-27.958a12.016 12.016 0 0 1 11.958-11zm-12 17h28v14h-28zm30 14v-12.168l2 1.285v10.883zm6 0h-2v-9.6l2 1.286zm18 0v-10.883l2-1.285v12.168zm2-14.546-11.377 7.314a3.008 3.008 0 0 1 -3.246 0l-11.377-7.314v-22.329a13 13 0 1 1 26 0z"/><path d="m8 38h2a5.006 5.006 0 0 1 5-5v-2a7.008 7.008 0 0 0 -7 7z"/><path d="m8 48h2v10h-2z"/><path d="m49.952 23.526a2.988 2.988 0 0 0 -5.9 0 8.97 8.97 0 0 0 -5.53 5.523 2.988 2.988 0 0 0 0 5.9 8.97 8.97 0 0 0 5.53 5.523 2.988 2.988 0 0 0 5.9 0 8.97 8.97 0 0 0 5.53-5.523 2.988 2.988 0 0 0 0-5.9 8.97 8.97 0 0 0 -5.53-5.523zm3.356 5.474h-3.308v-3.3a6.977 6.977 0 0 1 3.308 3.3zm-6.308-6a1 1 0 0 1 1 1v5h-2v-5a1 1 0 0 1 1-1zm1 8v2h-2v-2zm-4-5.3v3.3h-3.308a6.977 6.977 0 0 1 3.308-3.3zm-5 5.3h5v2h-5a1 1 0 0 1 0-2zm1.692 4h3.308v3.3a6.977 6.977 0 0 1 -3.308-3.3zm6.308 6a1 1 0 0 1 -1-1v-5h2v5a1 1 0 0 1 -1 1zm3-2.7v-3.3h3.308a6.977 6.977 0 0 1 -3.308 3.3zm5-5.3h-5v-2h5a1 1 0 0 1 0 2z"/><path d="m27 32a3 3 0 1 0 3 3 3 3 0 0 0 -3-3zm0 4a1 1 0 1 1 1-1 1 1 0 0 1 -1 1z"/></svg>
