<?xml version="1.0" encoding="iso-8859-1"?>
<!-- Generator: Adobe Illustrator 19.0.0, SVG Export Plug-In . SVG Version: 6.00 Build 0)  -->
<svg version="1.1" id="Layer_1" xmlns="http://www.w3.org/2000/svg" xmlns:xlink="http://www.w3.org/1999/xlink" x="0px" y="0px"
	 viewBox="0 0 512 512" style="enable-background:new 0 0 512 512;" xml:space="preserve">
<path style="fill:#FDC794;" d="M240.83,341.333v4.741c0,18.015,15.17,33.185,34.133,33.185c18.963,0,33.185-15.17,33.185-33.185
	v-80.593v213.333c0,18.015,15.17,33.185,33.185,33.185c18.015,0,33.185-15.17,33.185-33.185V208.593l-12.326,10.43l12.326-10.43
	c25.6-18.015,28.444-35.081,28.444-66.37l0,0c0-44.563-37.926-75.852-37.926-75.852l0,0V28.444C365.037,12.326,352.711,0,336.593,0
	H164.978c-15.17,0-27.496,12.326-27.496,28.444V66.37l0,0c-27.496,36.978-28.444,45.511-28.444,113.778
	c0,39.822,12.326,86.281,12.326,86.281v0.948c-5.689,17.067,2.844,36.03,20.859,41.719c17.067,5.689,36.03-3.793,41.719-20.859
	l-6.637,18.963c-5.689,17.067,2.844,35.081,19.911,40.77l1.896,0.948c17.067,5.689,35.081-2.844,40.77-19.911l3.793-10.43
	L240.83,341.333z"/>
<g>
	<path style="fill:#F9A671;" d="M152.652,320.474c-4.741,0-9.481-0.948-14.222-1.896c-21.807-7.585-34.133-32.237-26.548-54.044
		l34.133-98.607c7.585-21.807,32.237-34.133,54.044-26.548l0,0c21.807,7.585,34.133,32.237,26.548,54.044l-33.185,98.607
		c-3.793,10.43-11.378,18.963-21.807,24.652C164.978,319.526,159.289,320.474,152.652,320.474z M186.785,155.496
		c-9.481,0-18.963,6.637-22.756,16.119l-34.133,98.607c-1.896,5.689-1.896,12.326,0.948,18.015
		c2.844,5.689,7.585,10.43,13.274,12.326s12.326,1.896,18.015-0.948s10.43-7.585,12.326-13.274l34.133-98.607
		c4.741-13.274-1.896-26.548-14.222-31.289C191.526,156.444,189.63,155.496,186.785,155.496z"/>
	<path style="fill:#F9A671;" d="M257.896,293.926c-10.43,0-18.015-3.793-21.807-6.637c-12.326-10.43-17.067-28.444-10.43-45.511
		c14.222-35.081,78.696-109.037,105.244-120.415c4.741-1.896,10.43,0,12.326,4.741c1.896,4.741,0,10.43-4.741,12.326
		c-20.859,8.533-82.489,77.748-95.763,109.985c-2.844,8.533-0.948,18.963,4.741,23.704c7.585,5.689,19.911,2.844,35.081-6.637
		c15.17-10.43,54.044-39.822,86.281-64.474c3.793-2.844,10.43-2.844,13.274,1.896c2.844,3.793,2.844,10.43-1.896,13.274
		c-29.393,22.756-70.163,54.044-87.23,64.474C278.756,291.081,267.378,293.926,257.896,293.926z"/>
	<path style="fill:#F9A671;" d="M209.541,360.296c-4.741,0-9.481-0.948-13.274-1.896l-1.896-0.948l0,0
		c-10.43-3.793-18.963-11.378-23.704-20.859s-5.689-21.807-1.896-32.237l37.926-109.037c7.585-21.807,31.289-33.185,53.096-25.6
		l1.896,0.948c6.637,2.844,13.274,6.637,18.015,13.274c2.844,3.793,2.844,8.533,0,12.326c-18.015,21.807-31.289,41.719-36.03,53.096
		c-4.741,11.378,2.844,29.393,14.222,34.133c4.741,1.896,6.637,6.637,4.741,11.378L249.363,332.8
		c-3.793,10.43-11.378,18.963-20.859,23.704C221.867,358.4,216.178,360.296,209.541,360.296z M201.007,339.437l1.896,0.948
		c5.689,1.896,12.326,1.896,17.067-0.948c5.689-2.844,9.481-7.585,11.378-13.274l10.43-30.341
		c-15.17-12.326-23.704-36.03-16.119-54.044c4.741-12.326,17.067-31.289,33.185-51.2c-0.948-0.948-2.844-1.896-3.793-1.896
		l-1.896-0.948c-12.326-3.793-24.652,1.896-29.393,14.222l-37.926,109.037c-0.948,5.689-0.948,11.378,1.896,17.067
		S195.319,337.541,201.007,339.437L201.007,339.437z"/>
	<path style="fill:#F9A671;" d="M308.148,369.778c-5.689,0-9.482-3.793-9.482-9.481v-94.815c0-5.689,3.793-9.481,9.482-9.481
		c5.689,0,9.481,3.793,9.481,9.481v94.815C317.63,365.985,313.837,369.778,308.148,369.778z"/>
</g>
<g>
</g>
<g>
</g>
<g>
</g>
<g>
</g>
<g>
</g>
<g>
</g>
<g>
</g>
<g>
</g>
<g>
</g>
<g>
</g>
<g>
</g>
<g>
</g>
<g>
</g>
<g>
</g>
<g>
</g>
</svg>
